<?xml version="1.0" standalone="no"?>
<!DOCTYPE svg PUBLIC "-//W3C//DTD SVG 20010904//EN"
 "http://www.w3.org/TR/2001/REC-SVG-20010904/DTD/svg10.dtd">
<svg version="1.0" xmlns="http://www.w3.org/2000/svg"
 width="2112.000000pt" height="2112.000000pt" viewBox="0 0 2112.000000 2112.000000"
 preserveAspectRatio="xMidYMid meet">
<metadata>
Created by potrace 1.16, written by Peter Selinger 2001-2019
</metadata>
<g transform="translate(0.000000,2112.000000) scale(0.100000,-0.100000)"
fill="#000000" stroke="none">
<path d="M0 20891 c0 -226 0 -229 23 -245 63 -44 62 -43 36 -65 -13 -11 -32
-20 -41 -21 -15 0 -18 -10 -18 -69 l0 -69 47 -24 c43 -20 62 -23 173 -23 69 0
131 -4 138 -8 8 -6 12 -32 11 -80 -2 -82 5 -113 33 -144 25 -27 41 -22 98 36
25 25 63 59 84 75 38 28 38 29 34 84 -4 49 -9 60 -41 87 -20 17 -69 48 -109
68 -66 33 -74 34 -90 20 -16 -14 -20 -14 -50 4 -35 20 -47 48 -29 66 7 7 18 5
35 -7 l26 -16 0 32 c0 51 23 123 49 157 23 30 82 71 102 71 6 0 29 9 52 19 24
11 54 22 69 26 34 9 122 -29 143 -61 14 -21 23 -24 83 -24 71 0 92 -10 92 -43
0 -10 4 -16 9 -12 5 3 12 1 15 -4 3 -4 18 -11 33 -14 43 -10 61 -57 56 -147
-7 -111 15 -150 65 -119 15 9 31 6 85 -20 37 -18 67 -38 67 -46 0 -7 5 -15 11
-17 6 -2 22 -22 34 -43 18 -32 27 -39 47 -37 21 2 26 -3 32 -29 4 -22 1 -41
-11 -58 -16 -25 -139 -151 -148 -151 -12 0 -55 24 -55 32 0 4 -5 8 -10 8 -25
0 -93 57 -113 94 l-22 41 -3 -32 c-2 -19 -9 -33 -16 -33 -18 0 -74 -29 -83
-43 -9 -14 -11 -307 -2 -307 3 0 16 11 29 25 13 14 42 31 64 37 23 6 53 20 68
30 14 10 29 18 33 18 4 0 18 9 32 20 41 32 60 26 89 -32 14 -28 32 -58 40 -65
16 -16 20 -34 29 -115 3 -31 13 -62 21 -69 8 -6 14 -17 14 -25 0 -7 6 -17 13
-21 32 -19 61 -107 63 -186 l2 -77 -54 -48 c-50 -45 -69 -82 -44 -82 6 0 28 9
50 20 22 11 46 20 53 20 8 0 20 7 27 15 31 37 158 -12 160 -62 0 -6 16 -17 36
-23 47 -16 74 6 74 61 0 34 -40 126 -70 162 -39 46 -49 61 -60 87 -7 17 -16
30 -21 30 -12 0 -11 67 1 75 6 3 10 15 10 26 0 10 4 19 10 19 5 0 17 16 26 36
9 20 23 38 31 41 7 3 13 18 13 33 0 26 4 30 42 37 41 8 44 11 54 53 30 130 71
171 173 174 38 2 77 12 121 33 142 66 189 76 226 48 10 -8 26 -15 35 -15 48
-1 106 -128 94 -207 -8 -53 10 -87 51 -97 15 -4 41 -18 58 -30 17 -13 48 -30
69 -37 20 -7 37 -19 37 -25 0 -7 8 -14 18 -16 33 -8 59 14 84 70 23 50 34 84
55 169 7 31 -2 63 -33 109 -44 64 -56 111 -59 226 -3 100 -1 109 20 130 12 13
25 35 28 49 7 28 39 48 45 30 2 -6 21 -11 43 -11 31 0 39 -4 39 -18 0 -10 16
-26 38 -37 20 -11 40 -24 43 -28 10 -14 100 -28 136 -21 26 5 39 1 65 -21 18
-16 33 -31 33 -34 0 -3 4 -12 8 -18 5 -7 5 -17 2 -23 -3 -5 1 -20 9 -32 9 -12
16 -41 16 -65 0 -32 5 -46 22 -57 27 -19 38 -20 38 -4 0 39 111 158 148 158
26 0 28 18 8 102 -22 91 -9 123 91 223 74 75 86 92 104 151 12 38 34 81 53
102 21 25 43 71 65 137 18 55 44 115 58 133 l24 32 -525 0 c-290 0 -526 -4
-526 -8 0 -5 9 -19 20 -32 51 -59 50 -171 -2 -222 -17 -17 -42 -52 -55 -79
-23 -46 -26 -48 -78 -54 -30 -4 -70 -4 -88 -1 -31 6 -85 52 -101 86 -4 8 -13
26 -21 40 -8 14 -15 51 -15 85 0 66 15 98 69 153 l33 32 -1060 0 c-1003 0
-1060 -1 -1058 -17 1 -12 -7 -19 -23 -21 -39 -6 -91 8 -91 23 0 13 -27 15
-160 15 l-160 0 0 -229z"/>
<path d="M5010 21101 c0 -16 -35 -122 -59 -176 -5 -11 -12 -28 -15 -38 -7 -21
18 -87 32 -87 5 0 12 -10 15 -21 5 -17 10 -20 24 -13 10 4 60 7 111 5 80 -2
100 -7 150 -33 31 -17 71 -42 87 -58 61 -55 139 -87 283 -115 31 -6 96 -44
170 -99 45 -33 116 -46 232 -44 73 2 108 -2 150 -17 77 -28 131 -16 168 36 15
21 35 41 45 45 9 3 50 39 90 80 41 41 77 74 82 74 9 0 65 59 115 123 50 64
104 82 196 66 39 -6 98 -26 134 -45 79 -41 155 -74 169 -74 6 0 11 -4 11 -8 0
-5 19 -17 43 -27 23 -9 53 -22 67 -29 25 -11 158 -144 174 -174 13 -24 40 -49
77 -70 40 -22 58 -72 46 -127 -9 -41 7 -115 25 -115 15 0 8 -114 -10 -147 -71
-132 -82 -157 -82 -189 0 -30 -9 -45 -54 -90 -57 -57 -66 -76 -87 -167 -10
-47 -18 -61 -40 -73 -16 -8 -34 -14 -42 -14 -18 0 -27 -30 -27 -95 0 -27 -7
-81 -15 -120 -14 -66 -19 -74 -82 -136 -38 -37 -84 -91 -103 -120 -32 -49 -35
-60 -34 -124 1 -55 7 -81 27 -122 34 -65 34 -96 1 -177 -26 -66 -102 -165
-136 -178 -11 -5 -44 -24 -74 -44 l-55 -36 -189 -4 c-142 -2 -202 0 -245 11
-31 8 -82 15 -114 15 -32 0 -80 7 -107 15 -43 13 -67 13 -210 0 -88 -9 -192
-15 -230 -14 -87 1 -196 -13 -254 -33 -25 -9 -60 -19 -79 -22 -26 -5 -54 -26
-110 -83 l-75 -77 -65 -2 c-75 -3 -136 -17 -200 -47 -40 -18 -48 -19 -120 -7
-97 17 -189 17 -271 2 -36 -7 -92 -17 -125 -23 -79 -14 -156 -6 -192 20 -42
32 -146 46 -194 27 -30 -12 -65 -14 -172 -9 -124 6 -138 4 -179 -16 -68 -33
-82 -31 -216 30 -92 42 -233 154 -266 210 -14 26 -26 54 -26 63 0 9 -5 16 -11
16 -9 0 -9 17 -3 63 12 81 7 332 -7 377 -6 19 -24 56 -40 83 -16 26 -29 57
-29 68 0 12 -10 37 -21 56 -12 20 -26 56 -31 82 -5 25 -10 51 -12 57 -1 5 -12
23 -24 38 -21 27 -24 28 -54 15 -60 -24 -76 -39 -83 -79 -5 -27 -20 -52 -53
-85 -39 -40 -46 -53 -46 -85 1 -20 8 -52 17 -71 8 -19 31 -80 50 -135 20 -56
41 -111 48 -122 10 -16 10 -31 1 -72 -7 -28 -12 -62 -12 -75 0 -13 -9 -40 -20
-62 -63 -123 -68 -140 -59 -189 10 -52 0 -105 -28 -144 -10 -14 -22 -38 -28
-55 -8 -24 -18 -32 -52 -39 -24 -6 -43 -13 -43 -18 0 -4 -10 -8 -23 -8 -16 0
-30 -12 -47 -40 -31 -49 -50 -55 -154 -44 -44 4 -105 7 -135 6 -29 -1 -72 3
-94 8 -32 7 -53 5 -94 -10 -55 -19 -93 -17 -93 6 0 28 -30 13 -50 -25 -22 -44
-57 -73 -112 -90 -36 -12 -153 -102 -213 -164 -51 -52 -115 -148 -125 -186 -5
-20 -25 -53 -45 -74 -19 -20 -35 -41 -35 -46 0 -5 -7 -14 -16 -22 -35 -29 -65
-108 -62 -162 3 -46 6 -53 32 -66 16 -7 31 -22 33 -32 3 -10 20 -23 37 -29 28
-9 39 -7 82 17 52 29 74 47 74 60 0 18 42 34 75 27 19 -3 74 -1 122 6 115 16
170 14 199 -5 32 -20 86 -21 159 -2 222 59 368 71 494 42 56 -14 136 -48 151
-66 25 -30 123 -49 270 -52 63 -2 92 -7 111 -20 26 -17 28 -17 60 2 19 12 41
21 50 21 9 0 22 7 29 15 7 8 27 15 46 15 32 0 63 20 65 43 1 7 1 23 0 37 -1
14 2 30 6 35 11 14 89 55 106 55 13 0 57 52 57 68 0 14 117 51 142 44 12 -3
38 -15 57 -26 26 -15 50 -20 95 -19 48 2 64 -2 79 -18 22 -23 51 -12 69 27 12
26 33 30 138 25 48 -2 59 1 80 22 36 35 61 46 123 53 36 4 57 3 61 -5 16 -25
116 -9 116 18 0 12 13 22 37 29 36 11 97 0 155 -29 10 -5 25 -9 33 -9 8 0 15
-4 15 -10 0 -5 18 -20 40 -32 22 -13 40 -31 40 -40 0 -9 10 -20 23 -23 12 -4
48 -16 79 -28 51 -19 59 -26 73 -64 9 -24 20 -41 25 -38 4 3 7 -3 6 -13 -1
-12 6 -17 24 -17 21 0 31 -11 60 -70 19 -38 40 -73 47 -78 46 -30 81 -151 90
-317 6 -110 21 -149 56 -150 24 0 90 -70 112 -119 10 -23 23 -41 29 -41 6 0
17 -13 24 -29 26 -59 71 -91 92 -65 7 8 22 14 34 14 12 0 27 9 34 20 7 11 19
20 26 20 8 0 34 15 58 33 73 54 100 65 187 77 64 9 100 8 150 -1 62 -11 141
-9 287 7 48 5 64 3 76 -10 9 -9 23 -16 32 -16 8 0 24 -12 36 -27 18 -24 28
-27 76 -27 30 0 58 4 62 10 11 16 77 52 125 68 43 14 47 14 117 -15 40 -16 81
-29 92 -29 11 0 26 -7 34 -15 9 -8 28 -15 44 -15 16 0 32 -4 35 -10 3 -5 21
-10 40 -10 19 0 37 5 40 10 3 6 17 10 30 10 13 0 30 6 37 13 7 7 56 39 108 72
52 33 106 67 119 77 28 21 74 23 172 6 l71 -12 64 33 c54 28 71 32 107 27 23
-4 52 -15 63 -25 23 -19 74 -112 93 -172 7 -23 26 -46 55 -66 25 -18 66 -64
94 -105 28 -41 66 -88 86 -104 41 -32 96 -107 96 -130 0 -12 39 -20 73 -15 4
0 7 -4 7 -10 0 -6 9 -18 20 -27 15 -12 24 -36 30 -80 10 -74 24 -96 50 -82 23
12 58 0 84 -29 16 -18 17 -27 9 -63 -5 -24 -14 -42 -21 -41 -7 2 -12 -3 -12
-11 0 -8 -6 -16 -13 -19 -8 -3 -24 -40 -37 -83 -18 -60 -20 -81 -11 -96 6 -10
11 -35 11 -57 0 -36 -3 -40 -47 -61 -37 -17 -129 -38 -175 -40 -3 0 -19 11
-35 24 -26 22 -52 31 -116 41 -37 6 -98 39 -120 65 -16 19 -24 21 -73 14 -31
-3 -79 -18 -107 -31 -29 -14 -77 -33 -107 -43 -199 -66 -292 -105 -311 -133
-4 -5 -12 -6 -18 -2 -7 4 -19 1 -27 -6 -22 -18 -392 -13 -443 6 -117 44 -406
125 -447 125 -12 0 -37 6 -55 14 -19 7 -88 16 -154 19 -173 8 -255 40 -255
100 0 67 -91 111 -178 87 -20 -5 -62 -33 -92 -60 -65 -60 -77 -64 -173 -57
-152 12 -270 48 -320 99 -21 21 -46 38 -57 38 -10 0 -23 7 -28 16 -9 17 -63
31 -154 41 -38 4 -53 1 -74 -16 -17 -13 -41 -21 -65 -21 -22 0 -39 -4 -39 -9
0 -14 -83 -91 -98 -91 -20 0 -72 -29 -72 -40 0 -6 11 -15 24 -21 13 -6 26 -20
29 -29 5 -20 61 -58 117 -80 75 -29 204 -154 237 -229 13 -31 28 -64 34 -73 5
-10 9 -60 9 -112 0 -80 -4 -101 -22 -133 -12 -21 -26 -40 -31 -42 -5 -2 -17
-12 -25 -22 -9 -11 -22 -19 -28 -19 -7 0 -14 -6 -17 -14 -3 -8 -30 -26 -59
-41 -148 -74 -168 -85 -168 -95 0 -5 -11 -10 -25 -10 -15 0 -25 -6 -25 -14 0
-34 -183 -47 -284 -21 -46 12 -95 14 -244 9 -103 -3 -195 -10 -204 -15 -10 -5
-18 -18 -18 -29 0 -24 -31 -90 -42 -90 -4 0 -8 -9 -8 -21 0 -11 -4 -18 -9 -14
-5 3 -18 -6 -29 -20 -11 -14 -25 -25 -31 -25 -6 0 -11 -6 -11 -13 0 -8 -18
-22 -40 -32 -22 -10 -40 -22 -40 -27 0 -4 -9 -8 -19 -8 -11 0 -22 -4 -25 -9
-3 -4 -26 -16 -52 -26 -43 -16 -48 -16 -84 0 -44 20 -84 67 -120 142 -14 29
-31 53 -37 53 -7 0 -13 10 -13 23 -1 28 -22 57 -43 57 -20 0 -30 45 -17 71 16
29 9 137 -11 155 -8 7 -44 23 -80 35 -35 12 -75 29 -89 38 -47 33 -236 120
-281 130 -24 6 -66 20 -93 31 -35 16 -70 22 -130 23 -70 1 -90 -3 -151 -30
-38 -17 -83 -35 -100 -39 -47 -12 -76 -34 -138 -104 -127 -146 -140 -156 -247
-194 -59 -21 -124 -20 -203 1 -75 20 -118 51 -151 106 -28 49 -228 244 -273
268 -16 9 -54 45 -83 80 -29 35 -95 110 -148 166 -117 125 -128 129 -265 87
-94 -29 -272 -118 -317 -158 -46 -41 -213 -109 -269 -108 -14 0 -35 -7 -46
-14 -11 -8 -32 -14 -47 -14 -15 0 -30 -4 -33 -10 -3 -5 -30 -10 -58 -11 -29 0
-74 -5 -102 -10 -27 -6 -65 -13 -82 -16 l-33 -5 0 -547 0 -547 154 -12 c85 -7
199 -19 253 -26 54 -8 157 -19 228 -26 72 -6 147 -16 168 -21 21 -6 71 -13
110 -15 40 -3 97 -11 127 -19 56 -14 193 -30 336 -40 69 -4 85 -3 104 13 21
17 23 27 25 158 3 185 20 258 72 313 13 13 23 29 23 36 0 7 16 20 35 29 19 9
35 21 35 26 0 5 21 22 47 37 41 24 59 28 118 28 l70 -1 55 -56 c80 -82 100
-112 127 -187 26 -71 32 -156 13 -192 -7 -11 -18 -44 -27 -72 -8 -28 -34 -89
-57 -136 -23 -48 -41 -93 -41 -101 1 -8 -5 -28 -14 -45 -19 -39 -40 -139 -41
-191 0 -23 -7 -58 -15 -77 -27 -66 -21 -87 47 -147 96 -86 122 -112 153 -155
44 -62 87 -105 106 -105 10 0 58 16 108 35 159 60 221 55 294 -24 41 -44 77
-140 77 -203 0 -79 13 -111 64 -158 25 -23 46 -49 46 -56 0 -8 4 -14 9 -14 6
0 18 -13 28 -30 9 -16 23 -30 30 -30 7 0 13 -8 13 -18 0 -10 5 -23 11 -29 12
-12 38 -114 40 -163 2 -33 2 -33 9 10 l7 45 1 -43 c1 -28 6 -41 15 -40 13 3
13 1 2 -49 -7 -33 -7 -33 34 -33 38 0 41 -2 41 -28 0 -15 8 -32 18 -38 10 -7
24 -30 32 -53 7 -22 17 -41 22 -41 4 0 8 -10 8 -23 0 -13 6 -31 13 -41 14 -20
11 -66 -4 -66 -5 0 -9 -7 -9 -15 0 -8 7 -15 15 -15 8 0 15 -7 15 -15 0 -8 -7
-15 -15 -15 -8 0 -15 -9 -15 -20 0 -24 -21 -70 -32 -70 -9 0 -9 2 -13 38 -1
13 -10 29 -20 36 -12 8 -18 25 -17 46 0 18 -6 39 -14 47 -17 18 -18 33 -2 33
7 0 -5 17 -25 38 -20 21 -37 48 -37 60 0 19 -5 22 -40 22 l-40 0 0 -60 c0 -46
-3 -60 -14 -60 -11 0 -13 -9 -9 -37 3 -21 9 -40 14 -43 4 -3 10 -37 13 -75 2
-39 10 -106 16 -150 6 -44 13 -162 15 -262 6 -216 -1 -239 -90 -324 -32 -30
-80 -83 -108 -119 -28 -36 -56 -69 -62 -75 -6 -5 -49 -59 -95 -120 -94 -124
-218 -255 -329 -348 -41 -34 -107 -93 -148 -132 -40 -38 -94 -79 -119 -90 -42
-18 -56 -19 -165 -11 -65 5 -119 13 -119 17 0 5 -13 9 -30 9 -16 0 -30 5 -30
10 0 6 -6 10 -12 10 -7 0 -29 15 -48 33 -27 25 -38 47 -49 92 -23 104 -24 111
-7 128 9 8 16 22 16 29 0 18 105 65 185 83 16 4 79 9 139 11 170 7 316 41 316
72 0 7 4 11 9 7 6 -3 28 18 50 48 42 55 71 144 71 219 0 56 -22 138 -37 138
-7 0 -13 11 -13 24 0 13 -4 26 -9 28 -11 4 -71 105 -71 121 0 7 -12 24 -25 40
-23 26 -28 27 -114 27 -73 0 -92 -3 -99 -17 -8 -13 -19 -15 -63 -10 -30 4 -55
11 -57 17 -2 5 -17 10 -33 10 -16 0 -43 9 -61 20 -18 11 -47 20 -64 20 -38 0
-94 19 -94 31 0 5 -6 9 -12 9 -7 0 -29 22 -48 50 -19 27 -38 49 -42 50 -5 0
-8 8 -8 17 0 9 -6 24 -14 32 -8 9 -21 48 -30 86 -26 116 -47 189 -61 205 -20
24 -35 79 -35 129 0 70 28 240 45 274 8 17 15 47 15 69 0 21 6 47 12 58 10 16
9 25 -7 52 -16 27 -19 48 -17 113 7 197 5 314 -7 363 -10 43 -9 58 2 85 31 71
33 84 28 142 -4 41 -14 70 -29 89 -12 16 -22 34 -22 41 0 6 -9 20 -20 30 -11
10 -20 24 -20 31 0 23 -93 103 -140 121 -25 9 -52 22 -61 30 -8 7 -26 13 -38
13 -12 0 -32 6 -44 14 -37 23 -120 28 -220 12 -105 -17 -231 -47 -294 -70 -55
-20 -383 -41 -441 -28 l-42 10 0 -455 0 -455 26 -22 c35 -27 94 -65 117 -72 9
-4 17 -13 17 -22 0 -8 10 -24 23 -36 99 -96 118 -153 118 -353 0 -71 4 -123 9
-123 10 0 -49 -93 -64 -99 -9 -4 -31 -26 -56 -57 -21 -26 -107 -84 -125 -84
-8 0 -15 -4 -15 -10 0 -5 -11 -12 -25 -16 l-25 -6 0 -2339 0 -2340 30 -29 c17
-17 35 -30 40 -30 6 0 10 -7 10 -15 0 -8 8 -15 18 -15 10 0 25 -9 35 -20 9
-11 23 -20 30 -20 18 0 37 -43 37 -83 0 -18 9 -52 20 -76 11 -24 20 -61 20
-82 0 -30 4 -39 17 -39 9 0 14 -3 11 -6 -4 -3 -2 -20 3 -37 10 -32 11 -202 2
-287 -2 -25 -5 -238 -7 -475 -2 -410 -12 -568 -36 -614 -5 -9 -21 -54 -35
-101 -15 -47 -32 -98 -40 -115 -7 -16 -18 -50 -25 -75 -7 -24 -25 -60 -41 -79
-16 -20 -29 -41 -29 -48 0 -17 -40 -83 -51 -83 -5 0 -9 -917 -9 -2240 l0
-2240 10560 0 10560 0 0 3945 c0 3149 -3 3945 -12 3945 -7 0 -31 16 -52 35
-22 19 -42 35 -45 35 -3 0 -20 14 -38 30 -22 20 -37 49 -49 90 -9 33 -20 60
-24 60 -5 0 -13 12 -19 28 -7 15 -20 43 -31 62 -10 19 -19 47 -20 61 0 15 -6
29 -14 32 -7 3 -16 25 -20 48 -4 24 -11 48 -17 55 -5 6 -14 39 -20 73 -7 40
-16 61 -25 61 -10 0 -14 14 -14 50 0 37 -5 55 -21 71 -11 11 -18 27 -15 36 3
8 6 30 6 49 0 24 5 34 15 34 8 0 15 6 15 14 0 8 20 21 43 29 36 12 52 13 92 3
26 -7 53 -20 60 -29 7 -9 21 -17 32 -17 10 0 24 -5 29 -10 6 -6 40 -13 77 -17
l67 -6 -2 1719 -3 1719 -55 8 c-30 4 -59 12 -64 17 -6 6 -20 10 -31 10 -12 0
-30 9 -40 20 -10 11 -23 20 -29 20 -45 2 -105 116 -131 248 -6 30 -9 32 -23
19 -30 -25 -51 -27 -65 -7 -8 11 -17 17 -21 13 -4 -4 -13 -8 -19 -8 -47 -3
-136 -18 -154 -27 -33 -16 -98 6 -125 43 -12 16 -28 27 -35 25 -26 -10 -43 36
-33 89 12 71 33 125 46 125 7 0 15 8 19 18 6 16 7 16 19 0 16 -22 24 -23 28
-1 3 16 4 16 20 0 9 -9 26 -17 37 -17 12 0 21 -4 21 -8 0 -5 25 -21 56 -36 31
-15 69 -41 85 -57 21 -21 38 -29 64 -29 19 0 35 3 35 8 0 4 17 16 38 27 20 11
41 25 45 32 11 17 32 16 46 -1 17 -20 69 -13 131 18 32 16 68 26 96 26 l44 0
0 1250 c0 688 -3 1250 -6 1250 -3 0 -40 -17 -82 -37 l-76 -38 -211 0 c-116 -1
-253 -7 -306 -14 -128 -18 -261 -5 -311 30 -14 11 -31 19 -37 19 -6 0 -11 6
-11 13 0 8 -10 23 -23 35 -21 20 -56 84 -92 167 -10 22 -20 68 -23 103 -3 39
-9 62 -17 62 -16 0 -42 30 -47 55 -2 15 -24 27 -95 51 -78 25 -101 39 -145 81
-92 87 -117 118 -124 149 -11 59 -32 73 -119 84 -72 9 -83 13 -107 41 -15 17
-32 54 -38 80 -13 54 -39 79 -82 79 -46 0 -59 23 -52 93 4 34 10 64 15 65 5 2
9 11 9 20 1 10 14 32 29 50 25 29 32 32 50 23 12 -7 21 -16 21 -21 0 -6 9 -19
21 -31 20 -20 22 -20 40 -3 10 9 19 23 19 30 0 25 93 72 158 79 85 10 126 42
119 94 -27 191 -33 211 -77 254 -41 41 -80 111 -80 146 0 9 -18 32 -40 51 -22
19 -40 42 -40 50 0 9 -4 20 -9 26 -13 14 -41 104 -41 131 0 20 22 66 40 83 12
11 30 51 30 65 0 9 19 35 43 58 44 44 118 77 172 77 29 0 63 17 93 47 13 13
76 33 104 33 9 0 37 9 63 20 68 29 85 27 185 -19 19 -9 37 -18 40 -21 25 -25
80 -40 144 -40 69 0 107 -13 128 -44 3 -5 30 -13 60 -17 29 -4 94 -15 143 -24
70 -12 103 -14 150 -6 46 8 75 7 125 -4 72 -16 136 -18 229 -9 l61 7 0 1808 0
1809 -118 0 c-109 0 -118 -2 -131 -21 -11 -18 -11 -23 0 -30 8 -4 10 -11 7
-15 -4 -3 -15 1 -24 10 -12 13 -14 20 -5 29 6 6 11 15 11 19 0 4 -1207 8
-2682 8 l-2683 -1 -28 -24 c-19 -17 -26 -31 -22 -44 5 -16 1 -18 -31 -15 -49
4 -70 -23 -79 -98 -4 -32 -10 -58 -15 -58 -4 0 -11 -8 -14 -17 -11 -32 -32
-61 -76 -109 -36 -39 -56 -51 -117 -71 -84 -26 -126 -29 -146 -9 -16 16 -96
58 -147 77 -44 16 -146 112 -167 157 -17 36 -23 152 -10 190 l8 22 -4820 0
c-4713 0 -4821 0 -4821 -19z m11677 -36 c12 -9 26 -14 30 -13 10 4 108 -95
138 -139 21 -31 21 -37 10 -86 -16 -65 -53 -135 -82 -155 -13 -8 -23 -21 -23
-29 0 -10 -6 -12 -20 -8 -11 4 -20 2 -20 -4 0 -14 -73 -14 -125 0 -57 15 -71
13 -95 -11 -23 -23 -50 -79 -50 -103 0 -8 8 -23 18 -35 l18 -21 19 25 c10 13
35 29 57 35 21 5 42 17 45 25 3 7 14 14 26 14 11 0 31 9 43 21 33 31 77 33
105 3 12 -13 28 -24 36 -24 20 0 27 -49 14 -87 -7 -19 -10 -38 -6 -41 10 -11
130 -3 133 8 2 6 10 10 18 10 7 0 21 12 31 28 10 15 22 30 28 34 7 5 6 14 -2
28 -23 35 -18 51 31 100 23 23 114 28 134 8 7 -7 40 -12 84 -11 71 1 72 1 110
-39 70 -73 86 -149 44 -206 -25 -34 -76 -85 -76 -75 0 3 -8 -4 -17 -14 -18
-21 -114 -63 -141 -63 -8 0 -21 -8 -28 -17 -12 -17 -15 -16 -37 10 -27 30 -57
36 -57 10 0 -15 12 -57 30 -108 24 -66 31 -97 25 -115 -3 -11 -10 -20 -15 -20
-11 0 -20 -40 -26 -123 -2 -40 -10 -82 -16 -95 -18 -35 -84 -75 -167 -102 -64
-20 -111 -50 -111 -70 0 -3 -15 -14 -34 -23 -19 -8 -42 -29 -52 -46 -9 -16
-36 -38 -58 -47 -23 -10 -58 -32 -79 -48 -34 -27 -45 -30 -99 -28 -34 2 -81 7
-105 12 -38 9 -48 7 -81 -13 -20 -13 -54 -29 -74 -36 -21 -7 -40 -17 -43 -22
-4 -5 -17 -9 -30 -9 -16 0 -28 -9 -37 -27 -7 -15 -33 -39 -58 -52 -41 -23 -90
-67 -90 -82 0 -3 -12 -20 -27 -36 -16 -17 -46 -56 -68 -88 -83 -121 -139 -153
-228 -131 -115 29 -113 29 -149 -15 -33 -40 -78 -86 -119 -122 -22 -20 -25
-20 -145 0 -28 5 -84 26 -125 46 -107 54 -127 104 -95 237 24 101 65 168 158
261 48 48 108 100 133 115 25 16 48 37 51 46 5 18 68 84 84 90 6 2 6 17 -1 41
-5 21 -7 47 -4 58 11 35 49 88 68 94 9 4 17 13 17 20 0 8 20 23 45 34 25 11
45 25 45 30 0 6 6 11 12 11 15 0 75 66 83 91 3 10 12 16 19 13 7 -3 16 3 19
13 7 21 17 36 71 113 55 77 74 93 160 134 42 20 95 53 119 74 23 21 55 46 70
55 25 16 26 20 13 33 -9 8 -40 23 -69 33 -73 26 -95 41 -107 75 -14 42 -12
162 4 224 34 127 153 203 286 183 68 -10 125 14 169 70 58 74 183 113 238 74z
m-2612 -83 c11 -25 37 -29 55 -7 7 8 17 15 21 15 12 0 125 -115 133 -135 3 -8
12 -15 21 -15 8 0 15 -7 15 -16 0 -9 7 -22 17 -29 26 -19 38 -235 12 -235 -4
0 -37 -19 -73 -41 -42 -26 -66 -48 -66 -59 0 -20 -25 -50 -41 -50 -5 0 -9 6
-9 13 0 28 -101 73 -169 75 -13 1 -24 2 -25 4 0 2 -11 17 -24 35 -12 18 -22
38 -22 45 -1 7 -9 24 -20 36 -17 20 -25 23 -59 17 -47 -8 -81 1 -81 20 0 8 -9
19 -21 25 -17 10 -20 20 -18 68 2 55 -13 127 -33 165 -14 27 0 75 27 93 19 12
31 13 71 3 27 -7 66 -20 86 -30 44 -22 48 -23 48 -6 1 6 20 21 43 33 36 18 47
19 72 10 17 -7 34 -22 40 -34z m723 -644 c2 -10 8 -18 11 -18 9 0 46 -84 55
-123 10 -43 -22 -207 -47 -244 -12 -18 -27 -33 -34 -33 -6 0 -15 -9 -18 -20
-3 -11 -15 -25 -26 -31 -12 -6 -18 -17 -15 -25 3 -9 1 -12 -4 -9 -5 3 -15 -5
-21 -18 -17 -37 -70 -60 -140 -59 -33 1 -66 6 -73 12 -17 13 -117 -8 -129 -27
-4 -7 -12 -13 -17 -13 -5 0 -21 -11 -36 -25 -15 -14 -35 -25 -45 -25 -14 0
-19 -7 -19 -25 0 -14 -4 -25 -9 -25 -5 0 -18 -15 -29 -34 -14 -23 -32 -38 -59
-46 -74 -23 -104 -42 -168 -104 -48 -48 -72 -65 -102 -69 -63 -11 -127 -7
-147 8 -11 8 -26 15 -33 15 -27 0 -94 51 -119 92 -38 60 -45 162 -15 211 11
19 21 42 21 51 0 9 16 26 35 37 19 12 35 27 35 34 0 7 15 19 34 25 19 6 40 18
46 26 9 10 36 14 101 14 71 0 89 3 89 15 0 11 8 11 43 -5 23 -11 58 -20 78
-20 32 0 39 5 52 33 9 17 19 44 22 60 7 27 40 38 47 16 4 -12 30 -1 68 27 8 6
28 14 44 18 45 11 69 44 89 121 10 39 23 75 27 80 5 6 5 27 1 47 -8 32 -6 36
13 36 11 0 48 10 81 22 37 14 90 23 139 25 43 2 80 6 83 8 11 11 86 -17 91
-35z m-1541 -1078 c17 -8 34 -22 36 -32 3 -11 14 -18 29 -18 22 0 70 -38 106
-83 6 -9 12 -32 12 -52 0 -19 5 -35 11 -35 7 0 9 -11 5 -30 -3 -16 -9 -43 -12
-60 -4 -16 -13 -30 -20 -30 -8 0 -14 -4 -14 -9 0 -11 -58 -71 -69 -71 -4 0
-19 -8 -32 -19 -23 -18 -25 -18 -77 2 -57 21 -102 74 -128 147 -17 47 -17 139
1 170 8 14 14 39 15 57 0 48 56 99 90 83 8 -4 29 -13 47 -20z m5672 -394 c29
-8 60 -21 70 -29 9 -8 26 -18 39 -21 12 -4 22 -15 22 -24 0 -8 9 -25 20 -37
30 -32 30 -129 -1 -186 -33 -61 -36 -63 -148 -121 -59 -30 -98 -34 -165 -17
-35 9 -48 19 -71 55 -16 25 -34 48 -42 52 -9 5 -14 37 -17 100 -2 51 0 89 5
86 5 -3 9 3 9 13 0 45 86 123 136 123 8 0 14 5 14 10 0 14 66 12 129 -4z
m-3078 -2321 c15 -12 40 -27 56 -34 21 -8 37 -28 53 -62 13 -27 27 -49 32 -49
12 0 9 -59 -5 -105 -16 -53 -45 -105 -57 -105 -6 0 -10 -7 -10 -15 0 -8 -7
-15 -15 -15 -9 0 -28 -9 -43 -19 -15 -12 -64 -26 -112 -34 -83 -14 -86 -14
-130 8 -25 13 -51 34 -57 47 -44 88 -63 154 -63 216 0 41 22 102 38 102 4 0
25 17 47 37 57 52 86 61 169 55 53 -4 77 -10 97 -27z m2474 -841 c31 -16 42
-29 48 -58 13 -53 0 -120 -28 -151 -14 -14 -25 -33 -25 -41 0 -8 -10 -14 -23
-14 -13 0 -52 -12 -88 -26 -57 -23 -72 -26 -138 -20 -62 6 -79 11 -98 32 -13
14 -23 29 -23 34 0 19 -23 59 -31 54 -4 -2 -7 22 -5 54 2 47 8 63 30 85 15 15
33 27 41 27 8 0 15 6 15 14 0 23 62 35 175 33 89 -2 118 -6 150 -23z m602
-416 c57 -25 131 -89 160 -139 9 -15 33 -38 54 -50 36 -23 79 -94 79 -131 0
-20 46 -58 70 -58 37 0 87 -67 105 -142 8 -31 -12 -128 -26 -128 -5 0 -9 -9
-9 -19 0 -17 -28 -33 -80 -46 -28 -8 -55 -29 -110 -85 -53 -55 -78 -73 -135
-95 -38 -15 -84 -38 -102 -51 -17 -13 -36 -24 -42 -24 -6 0 -11 -6 -11 -13 0
-23 -108 -50 -242 -62 -48 -5 -78 -12 -78 -19 0 -11 -80 -11 -110 1 -30 12
-45 12 -52 0 -6 -9 -8 -9 -8 1 0 8 -22 12 -75 12 -41 0 -75 4 -75 9 0 5 -35
12 -77 16 -76 7 -140 35 -128 55 3 5 -3 15 -13 22 -10 7 -21 21 -25 31 -4 11
-16 21 -27 24 -11 3 -20 12 -20 19 0 8 -5 14 -10 14 -6 0 -28 11 -50 25 -22
14 -51 25 -64 25 -14 0 -27 4 -30 9 -4 5 -30 12 -59 16 -56 8 -107 29 -107 45
0 6 -8 10 -17 10 -16 0 -105 79 -140 123 -7 8 -17 17 -23 19 -16 5 -27 89 -17
125 6 17 20 37 33 44 13 7 24 16 24 21 0 4 7 8 15 8 9 0 15 10 15 26 0 24 33
95 57 121 6 7 18 13 25 13 7 0 24 7 37 16 42 30 194 2 366 -67 11 -5 58 -17
105 -28 75 -18 99 -19 208 -11 86 7 139 16 180 32 l57 23 56 112 c30 62 58
115 61 118 3 4 28 14 54 25 57 21 161 25 201 8z m-10426 -498 c-21 -102 -21
-124 4 -274 4 -25 3 -28 -18 -22 -36 9 -118 57 -124 72 -3 8 6 51 21 97 14 45
28 95 31 111 5 22 9 26 15 16 8 -13 25 14 69 105 23 50 24 8 2 -105z m-825 17
c34 -20 84 -65 84 -76 0 -6 7 -11 16 -11 16 0 124 -108 124 -125 0 -5 -4 -15
-8 -21 -10 -16 -74 -54 -90 -54 -7 0 -28 -11 -45 -24 -51 -38 -107 -62 -185
-80 -41 -8 -88 -22 -105 -30 -18 -8 -72 -27 -122 -41 -49 -15 -95 -31 -102
-37 -8 -6 -28 -6 -60 2 -26 6 -61 14 -76 17 -19 4 -38 19 -55 46 -23 34 -26
50 -26 116 0 61 4 85 23 121 37 69 89 118 167 156 64 31 79 34 165 35 52 1
108 5 124 9 48 12 148 10 171 -3z m-892 -418 c68 -25 156 -101 156 -134 0 -27
-40 -111 -67 -141 -41 -45 -182 -102 -293 -119 -25 -4 -56 -13 -70 -20 -40
-20 -311 -75 -373 -75 -23 0 -56 -4 -73 -9 -17 -5 -37 -5 -44 -1 -17 11 -1 19
50 25 24 3 55 14 69 24 15 11 43 22 64 26 20 4 37 11 37 16 0 5 11 9 24 9 13
0 30 7 37 16 7 9 23 20 34 24 17 6 25 28 44 109 13 56 28 101 32 101 5 0 9 6
9 14 0 18 39 58 90 92 23 16 54 37 69 46 37 25 135 24 205 -3z m13631 -109 c3
-5 19 -13 36 -17 16 -5 28 -11 27 -15 -2 -4 18 -29 43 -55 43 -45 51 -60 66
-136 7 -37 -16 -117 -41 -143 -12 -11 -35 -37 -53 -57 -48 -55 -110 -78 -238
-89 -131 -10 -255 -9 -310 5 -57 15 -113 67 -158 150 -25 44 -28 58 -23 100 4
27 12 56 19 64 29 37 102 103 114 103 8 0 26 11 41 25 22 21 37 25 85 25 49 0
203 32 216 46 9 9 170 4 176 -6z m-15587 -180 c18 -11 39 -20 48 -20 8 0 25
-11 38 -25 13 -14 28 -25 35 -25 6 0 11 -5 11 -10 0 -6 8 -14 18 -17 9 -4 22
-13 27 -20 12 -15 113 -42 163 -43 17 0 32 -4 32 -8 0 -10 66 -9 76 1 4 4 30
7 58 7 28 1 77 7 108 14 73 18 238 2 238 -23 0 -9 47 -28 105 -42 79 -19 104
-49 40 -49 -20 0 -48 -6 -63 -14 -48 -25 -233 -66 -347 -77 -60 -6 -115 -15
-122 -21 -7 -6 -14 -5 -18 2 -10 16 -47 12 -87 -10 -43 -23 -106 -38 -186 -46
-78 -7 -132 -22 -139 -40 -3 -7 -12 -14 -19 -14 -8 0 -33 -9 -56 -21 -23 -12
-50 -18 -63 -15 -20 5 -23 14 -30 88 -4 46 -11 91 -16 100 -5 10 -10 35 -11
55 0 21 -7 48 -14 60 -15 23 -17 143 -2 143 4 0 17 18 28 39 10 22 25 41 32
44 29 12 85 6 116 -13z m13647 -170 c3 -5 27 -10 52 -10 54 0 173 -19 188 -30
6 -4 22 -10 37 -14 32 -7 68 -42 106 -99 25 -39 27 -50 26 -137 -1 -94 -2 -96
-45 -167 -49 -80 -103 -121 -199 -146 -72 -20 -224 -31 -247 -18 -10 5 -117
14 -238 20 -121 6 -243 17 -271 24 -79 22 -169 99 -205 177 -7 14 -14 66 -16
115 -5 88 -4 91 29 140 18 28 42 59 53 71 28 28 119 61 191 69 33 4 61 9 63
11 10 9 470 3 476 -6z m-3217 -107 c7 -7 24 -13 37 -13 13 0 35 -11 48 -24 13
-13 37 -31 53 -40 16 -9 48 -27 71 -40 23 -13 50 -31 58 -40 9 -9 46 -34 83
-56 88 -52 98 -60 107 -90 4 -14 28 -72 53 -130 46 -107 119 -350 105 -350 -3
0 0 -7 7 -15 7 -8 24 -50 39 -93 22 -63 27 -94 25 -154 -2 -86 -12 -109 -66
-158 -21 -20 -38 -39 -38 -43 0 -14 29 -7 39 11 7 12 13 14 21 6 11 -11 -24
-67 -86 -134 -50 -55 -117 -133 -139 -163 -10 -14 -31 -35 -46 -46 l-26 -19 4
26 c3 26 3 26 -6 5 -6 -13 -17 -23 -25 -23 -8 0 -18 -5 -22 -11 -4 -8 1 -9 15
-4 94 29 -230 -217 -342 -261 -75 -30 -103 -34 -99 -14 3 10 -4 8 -20 -7 -25
-24 -51 -24 -148 -3 -58 13 -197 82 -217 107 -12 16 -83 26 -83 12 0 -22 -38
6 -85 62 -34 42 -127 173 -133 189 -8 22 -78 122 -99 143 -10 9 -47 38 -82 63
-48 35 -61 48 -52 57 9 9 20 7 44 -7 84 -50 143 -68 262 -80 33 -4 75 -12 94
-18 109 -35 268 61 563 340 123 117 170 152 201 152 15 0 17 12 17 120 0 116
-8 171 -36 255 -21 63 -54 197 -54 218 0 25 -68 226 -86 254 -8 12 -14 25 -14
28 0 9 45 0 58 -12z m1996 -28 c14 -13 26 -33 26 -43 0 -11 9 -39 20 -63 11
-24 20 -54 20 -66 0 -13 5 -23 11 -23 19 0 4 -101 -20 -142 -13 -21 -33 -39
-47 -42 -14 -4 -36 -17 -49 -30 -13 -13 -52 -34 -85 -45 -51 -18 -70 -20 -113
-12 -55 10 -72 6 -101 -21 -11 -10 -23 -18 -27 -18 -17 0 -34 -70 -32 -136 2
-92 22 -126 136 -244 48 -49 87 -98 88 -107 1 -34 6 -68 14 -105 9 -46 -4 -49
-48 -12 -26 22 -126 73 -287 147 -52 24 -82 51 -135 122 -30 40 -66 79 -80 87
-86 44 -227 142 -284 196 -36 35 -57 60 -46 56 11 -4 42 -12 68 -18 57 -12
100 5 105 41 3 21 5 21 39 7 32 -14 42 -14 99 2 35 9 73 26 85 37 16 15 23 17
29 7 4 -7 11 23 15 65 7 76 12 89 48 123 9 9 17 20 17 25 0 10 52 56 65 57 11
0 95 76 95 86 0 3 14 19 30 34 21 20 46 31 78 35 26 3 63 10 82 15 19 4 62 8
96 9 52 1 65 -3 88 -24z m-11514 -395 c0 -5 -7 -10 -15 -10 -8 0 -22 -11 -31
-25 -14 -22 -16 -44 -11 -138 6 -123 23 -218 68 -375 50 -172 117 -300 286
-541 l73 -104 84 -38 c243 -108 393 -119 536 -40 30 17 66 31 80 30 l25 0 -21
-17 c-11 -10 -19 -24 -17 -32 4 -13 3 -13 -6 0 -10 13 -14 12 -31 -9 -26 -30
-26 -49 0 -26 11 10 20 13 20 7 0 -7 -3 -12 -7 -12 -5 0 -19 -17 -33 -38 -14
-20 -31 -43 -37 -50 -7 -7 -13 -18 -13 -24 0 -6 -10 -19 -22 -29 -11 -11 -35
-39 -52 -64 -17 -25 -57 -82 -88 -127 -31 -46 -65 -92 -75 -103 -10 -11 -30
-38 -45 -60 -15 -22 -41 -59 -58 -83 -16 -23 -30 -44 -30 -46 0 -2 -20 -37
-45 -77 -25 -40 -45 -79 -45 -87 0 -8 -6 -12 -13 -9 -10 4 -13 -2 -9 -18 2
-15 -22 -76 -71 -177 -89 -181 -141 -263 -198 -315 -50 -46 -74 -57 -37 -16
l28 29 -30 2 c-42 3 -107 -25 -92 -40 8 -8 1 -16 -26 -30 -32 -16 -42 -17 -77
-7 -54 15 -119 67 -105 84 5 6 6 15 2 20 -4 4 3 3 15 -4 30 -15 38 -14 22 5
-11 14 -10 18 10 34 13 9 19 20 14 23 -6 4 -30 -11 -54 -33 -24 -22 -51 -40
-60 -40 -14 0 -93 52 -114 76 -9 10 -227 185 -286 229 -34 26 -141 107 -154
117 -5 4 -34 28 -64 53 -30 25 -58 45 -63 45 -4 0 -8 4 -8 8 0 5 -28 58 -61
118 -34 60 -77 145 -96 188 -18 44 -43 96 -53 115 -51 93 -108 241 -161 417
-11 37 -12 84 -1 84 4 0 13 20 21 44 13 46 25 64 106 157 46 52 266 251 375
337 25 20 117 106 205 192 88 85 196 187 240 225 43 39 115 103 159 143 65 58
87 72 113 72 18 0 33 -4 33 -10z m5865 -367 c15 -36 12 -65 -15 -128 -5 -11
-16 -38 -25 -60 -9 -22 -48 -106 -86 -187 -38 -81 -69 -150 -69 -153 0 -7 -41
-97 -77 -170 -14 -27 -38 -62 -54 -77 -22 -20 -29 -36 -30 -65 -1 -56 -6 -65
-104 -174 -74 -82 -102 -105 -160 -133 -85 -42 -190 -63 -355 -71 -144 -6
-209 -20 -262 -52 -42 -26 -44 -29 -24 -48 16 -16 27 -10 19 11 -3 9 1 14 12
14 9 0 23 7 31 15 16 16 59 21 50 6 -3 -5 3 -20 14 -32 20 -25 20 -25 24 24 1
18 28 36 51 36 17 0 16 -2 -5 -11 -18 -7 -21 -12 -10 -15 8 -3 20 -12 27 -20
10 -13 15 -13 44 1 18 9 40 16 51 16 16 0 23 11 19 33 -1 4 13 6 29 5 19 -1
29 -7 26 -14 -3 -7 -1 -14 4 -16 5 -2 14 -43 20 -93 6 -49 13 -101 15 -115 2
-14 4 -31 4 -37 1 -7 8 -13 17 -13 12 0 15 7 12 25 -4 21 -2 24 16 19 15 -3
24 1 31 18 7 16 18 22 33 21 16 -2 26 5 34 22 6 14 22 28 35 32 20 4 23 10 19
29 -7 25 8 34 18 12 3 -7 3 -2 0 11 -5 20 -3 23 11 17 11 -4 25 0 36 10 11 10
19 12 19 6 0 -20 22 -13 27 9 4 14 12 19 24 16 12 -3 19 0 19 8 0 8 8 16 18
19 9 2 27 7 39 11 15 4 29 -1 43 -15 l20 -20 23 23 c22 23 51 25 71 6 6 -5 32
-9 58 -9 26 0 48 -4 48 -9 0 -5 18 -8 40 -7 26 1 40 -2 40 -10 0 -16 34 -27
60 -19 18 6 20 2 20 -34 0 -38 1 -40 19 -29 16 10 25 9 45 -1 16 -9 34 -11 53
-5 15 4 43 7 61 5 17 -1 32 2 32 7 0 12 85 36 99 27 6 -3 11 -2 11 4 0 5 17
15 38 22 20 6 41 17 45 23 5 6 7 -8 5 -31 -2 -28 1 -43 8 -43 15 0 24 -23 24
-59 0 -34 -9 -44 -27 -30 -8 7 -13 8 -13 1 0 -5 7 -15 15 -22 9 -7 13 -21 10
-31 -4 -11 -1 -19 6 -19 9 0 9 -3 -1 -14 -8 -10 -8 -21 -2 -32 8 -15 10 -15
23 3 25 35 60 47 134 44 71 -2 100 -14 91 -38 -3 -8 2 -13 15 -13 24 0 82 50
59 50 -8 1 -3 8 13 16 27 15 47 12 47 -6 0 -5 -7 -7 -15 -4 -17 7 -21 -21 -5
-31 8 -5 7 -11 -1 -21 -6 -7 -9 -20 -6 -29 4 -8 3 -16 -1 -19 -9 -5 -9 -252
-1 -260 8 -9 39 4 39 16 0 5 12 20 28 33 19 17 30 20 40 13 8 -7 12 -7 12 1 0
6 7 11 16 11 14 0 14 -3 4 -15 -7 -9 -10 -19 -6 -22 4 -4 11 -1 16 6 8 14 18
-32 25 -107 1 -15 4 -34 8 -42 5 -14 16 -130 33 -355 11 -145 11 -153 16 -161
3 -5 11 -26 17 -46 7 -21 19 -38 26 -38 16 0 36 -85 40 -179 2 -36 6 -82 10
-101 4 -19 10 -69 15 -110 16 -150 51 -446 58 -495 4 -27 6 -102 6 -165 -4
-416 -5 -526 -4 -615 0 -55 -4 -116 -10 -135 -6 -19 -15 -55 -20 -80 -12 -66
-40 -224 -40 -232 0 -3 13 -9 29 -13 28 -6 29 -9 34 -73 3 -37 5 -165 5 -284
0 -129 3 -223 9 -230 17 -22 22 -59 12 -86 -6 -16 -6 -27 0 -31 6 -4 8 -21 5
-38 -3 -17 0 -34 6 -38 5 -3 10 -13 10 -21 0 -8 -4 -12 -10 -9 -12 8 -13 -8
-1 -20 16 -18 20 -105 5 -120 -8 -7 -14 -29 -14 -49 0 -19 -5 -38 -11 -42 -8
-4 -7 -9 2 -15 11 -7 10 -9 -5 -9 -13 0 -17 -5 -13 -20 7 -28 -13 -100 -35
-122 -11 -11 -18 -33 -18 -58 0 -22 -11 -63 -24 -90 -13 -27 -20 -52 -16 -55
9 -6 7 -51 -2 -61 -3 -3 -4 -26 -2 -52 3 -32 1 -42 -5 -32 -9 12 -11 12 -17
-3 -3 -9 -10 -14 -15 -11 -5 3 -9 -23 -9 -58 0 -71 -7 -65 87 -68 27 -1 51 -7
55 -13 4 -7 29 -11 60 -10 29 0 47 -1 41 -4 -10 -3 -9 -8 2 -20 9 -9 13 -23
10 -34 -4 -11 -2 -19 4 -19 6 0 11 -9 11 -20 0 -11 -4 -20 -10 -20 -5 0 -10
-4 -10 -10 0 -5 9 -10 21 -10 19 0 20 -4 14 -52 -4 -29 -7 -55 -7 -58 -1 -22
4 -30 17 -30 8 0 15 -3 16 -7 5 -50 4 -70 -4 -80 -7 -10 -4 -13 12 -13 12 0
21 -6 21 -15 0 -8 -7 -15 -16 -15 -9 0 -14 -6 -11 -12 2 -7 10 -12 16 -10 6 1
11 -5 11 -13 0 -8 -6 -15 -14 -15 -20 0 -26 -67 -10 -115 7 -21 10 -42 6 -45
-4 -3 -8 -23 -9 -45 -2 -58 -13 -108 -29 -125 -8 -10 -10 -21 -4 -30 5 -8 5
-19 1 -25 -5 -5 -11 -20 -14 -32 -4 -18 -1 -23 14 -23 12 0 19 -7 19 -19 0
-10 7 -24 15 -31 8 -7 15 -18 15 -25 0 -7 8 -15 18 -17 22 -6 35 -73 25 -133
-6 -35 -4 -38 15 -33 15 4 19 2 15 -8 -6 -17 -25 -18 -40 -3 -8 8 -13 8 -17 0
-4 -6 -2 -11 3 -11 6 0 11 -18 11 -39 0 -44 18 -68 57 -77 l26 -7 -24 -19
c-15 -12 -18 -16 -6 -12 24 9 47 -13 47 -45 0 -41 11 -73 24 -68 7 3 11 -17
11 -62 -1 -83 6 -100 40 -94 32 7 32 -2 -2 -33 l-26 -24 30 6 c36 7 52 -19 29
-45 -28 -32 -28 -57 0 -90 21 -26 23 -31 9 -31 -15 0 -15 -2 -4 -16 10 -13 10
-17 0 -24 -19 -11 -5 -71 15 -63 9 3 14 -2 14 -17 0 -16 -4 -20 -15 -16 -8 3
-15 1 -15 -4 0 -6 -8 -10 -17 -10 -15 0 -15 -2 -4 -9 17 -11 7 -41 -14 -41 -8
0 -15 -2 -15 -4 0 -2 -3 -11 -6 -19 -3 -10 1 -17 12 -19 16 -3 17 -4 1 -20
-10 -9 -13 -19 -8 -22 5 -4 11 -1 13 6 3 7 12 9 23 4 15 -6 17 -9 6 -16 -16
-9 -8 -85 12 -109 9 -11 9 -15 0 -18 -7 -3 -13 -11 -13 -18 0 -8 -8 -18 -17
-24 -15 -8 -16 -12 -5 -22 6 -7 12 -34 12 -60 0 -28 6 -53 14 -62 10 -9 13
-27 10 -51 -3 -27 -1 -36 11 -36 16 0 17 -1 19 -40 0 -14 6 -28 11 -32 6 -4 2
-8 -7 -8 -10 0 -18 -7 -18 -15 0 -8 4 -15 9 -15 5 0 12 -11 15 -25 4 -14 13
-25 21 -25 8 0 15 -9 15 -19 0 -13 8 -21 23 -23 12 -2 22 -7 23 -13 0 -5 4
-30 8 -55 4 -25 8 -56 8 -70 1 -14 7 -32 14 -40 17 -21 22 -56 7 -52 -7 1 -13
-6 -13 -17 0 -14 10 -21 36 -26 38 -7 58 0 30 11 -20 8 -21 24 0 24 12 0 9 7
-10 33 -27 36 -21 57 16 57 15 0 17 -6 13 -27 -4 -23 -4 -25 4 -8 11 22 11 22
16 -17 2 -16 -1 -28 -6 -28 -5 0 -9 -4 -9 -10 0 -5 7 -10 15 -10 8 0 15 5 15
10 0 6 3 10 8 10 4 0 8 -18 8 -40 1 -38 0 -39 -25 -34 -23 6 -24 5 -10 -7 9
-8 20 -27 23 -42 9 -37 33 -45 52 -18 9 12 20 19 25 15 5 -3 -2 -15 -16 -26
-32 -25 -36 -78 -5 -78 21 0 27 -15 10 -25 -19 -12 -11 -55 12 -64 18 -6 19
-9 5 -14 -21 -8 -22 -46 -3 -53 8 -3 12 -13 9 -25 -4 -14 -8 -17 -13 -9 -4 7
-10 -2 -14 -21 -4 -21 -2 -35 5 -40 9 -5 9 -22 -1 -67 -8 -34 -18 -58 -23 -55
-10 6 -5 -30 6 -38 4 -3 10 -28 13 -55 4 -27 10 -53 15 -58 12 -14 11 -63 -1
-71 -6 -4 -8 -21 -4 -39 4 -23 1 -38 -10 -49 -9 -8 -16 -22 -16 -30 0 -8 -6
-17 -14 -20 -7 -3 -16 -20 -20 -39 -3 -18 -16 -41 -29 -50 -19 -15 -20 -18 -4
-18 10 0 15 -5 12 -10 -4 -6 -11 -7 -17 -4 -7 5 -9 -1 -5 -15 3 -15 -1 -29
-13 -41 -11 -11 -15 -22 -10 -25 17 -11 11 -25 -15 -35 -14 -5 -25 -14 -25
-20 0 -6 -12 -9 -27 -8 -23 2 -31 -3 -45 -32 -17 -33 -22 -36 -90 -47 -39 -7
-74 -10 -78 -8 -4 2 -22 0 -41 -5 -19 -6 -45 -12 -59 -15 -14 -3 -58 -11 -99
-19 -41 -8 -80 -12 -87 -9 -8 3 -22 2 -31 -2 -15 -5 -63 -10 -194 -18 -9 -1
-15 -7 -12 -13 2 -7 -4 -15 -14 -17 -35 -11 -188 -21 -262 -18 -88 3 -201 -17
-201 -36 0 -19 -50 -29 -61 -12 -7 11 -9 9 -9 -6 0 -23 -51 -75 -74 -75 -8 0
-18 -5 -21 -10 -4 -6 -12 -10 -18 -9 -36 4 -90 -2 -82 -10 13 -12 115 -20 115
-10 0 5 5 9 11 9 5 0 7 -5 4 -10 -3 -5 3 -10 14 -10 11 0 23 5 26 10 3 5 13
10 21 10 8 0 12 -4 9 -10 -4 -6 5 -10 19 -10 14 0 31 8 38 19 9 14 19 18 48
14 25 -4 41 0 52 11 23 22 45 20 59 -5 8 -16 13 -18 19 -9 6 10 9 8 13 -6 4
-16 5 -16 6 4 1 28 31 30 38 2 6 -22 18 -26 28 -10 3 5 11 10 16 10 6 0 7 -5
4 -10 -3 -6 1 -10 9 -10 9 0 16 5 16 10 0 6 7 10 16 10 14 0 15 -2 3 -17 -13
-15 -11 -16 14 -9 17 4 34 2 42 -4 9 -8 14 -5 18 10 5 20 27 28 27 10 0 -5 -5
-10 -11 -10 -5 0 -7 -5 -4 -10 4 -6 2 -17 -5 -25 -6 -8 -10 -24 -8 -36 2 -18
-8 -28 -57 -55 -189 -101 -281 -145 -318 -150 -24 -4 -49 -15 -58 -26 -13 -17
-20 -18 -36 -9 -26 13 -164 18 -184 6 -8 -5 -25 -8 -39 -7 -20 2 -22 1 -10 -7
8 -6 11 -11 5 -11 -5 1 -18 6 -27 14 -13 9 -14 16 -6 24 11 11 10 12 -36 26
-7 3 -19 -1 -25 -7 -8 -8 -18 -7 -36 3 -20 11 -30 11 -45 2 -14 -9 -19 -8 -24
3 -4 10 -14 13 -34 9 -17 -4 -32 -1 -36 5 -4 6 -11 11 -17 11 -12 0 -12 -27 1
-32 5 -2 11 -18 13 -37 2 -24 8 -35 21 -37 10 -1 25 -9 34 -17 10 -8 31 -22
47 -30 17 -9 23 -17 15 -17 -12 0 -11 -4 4 -15 18 -14 17 -15 -19 -30 -20 -9
-62 -17 -91 -18 -30 -1 -54 -5 -54 -9 0 -4 -26 -12 -57 -18 -32 -6 -81 -18
-110 -26 -28 -8 -71 -17 -95 -18 -23 -2 -54 -8 -68 -14 -14 -6 -47 -16 -75
-22 -27 -7 -59 -15 -70 -20 -50 -20 -149 -34 -250 -35 -60 0 -116 1 -122 3 -7
2 -13 18 -13 34 0 23 -14 44 -57 89 -32 33 -62 69 -67 80 -5 10 -15 19 -23 19
-15 0 -17 -16 -3 -25 6 -3 10 -15 10 -25 0 -11 11 -27 25 -36 14 -9 25 -25 25
-36 0 -10 4 -17 9 -14 7 5 27 -26 29 -47 1 -4 9 -15 18 -24 16 -16 15 -18 -12
-25 -48 -13 -174 7 -174 27 0 8 -13 16 -29 20 -16 3 -37 17 -45 31 -9 13 -22
24 -29 24 -7 0 -21 11 -31 25 l-20 26 -21 -25 c-12 -14 -25 -23 -28 -20 -12
12 -55 -6 -60 -26 -6 -23 8 -27 17 -5 3 8 13 15 23 15 11 0 14 -3 7 -8 -7 -4
-13 -16 -15 -27 -5 -22 -44 -35 -75 -24 -13 4 -26 3 -33 -4 -29 -29 -371 3
-371 35 0 5 12 8 27 6 20 -2 29 2 31 16 2 10 -1 23 -7 29 -8 8 -11 5 -11 -12
0 -12 -4 -19 -10 -16 -6 4 -8 10 -5 15 3 5 -4 14 -16 20 -20 11 -20 12 -2 25
16 12 16 14 2 15 -11 0 -16 9 -16 25 0 13 5 23 11 22 6 -1 12 15 14 39 3 40 2
41 -22 37 -15 -3 -26 -9 -26 -14 0 -5 -7 -9 -15 -9 -19 0 -43 -42 -26 -48 6
-2 11 -16 11 -31 0 -15 5 -32 11 -38 8 -8 8 -17 0 -30 -7 -14 -7 -23 1 -31 9
-9 9 -15 1 -23 -20 -20 -63 4 -86 46 -12 22 -26 43 -32 47 -5 4 -7 8 -3 8 4 0
-1 15 -12 32 -11 18 -20 42 -20 52 0 15 -3 17 -11 9 -8 -8 -17 -5 -33 12 -12
13 -40 27 -61 31 -22 4 -51 14 -64 23 -16 10 -51 16 -105 17 -113 3 -114 3
-96 13 18 10 140 9 156 -2 7 -4 36 -2 65 4 30 6 59 11 64 10 109 -5 157 -11
192 -23 l42 -15 43 43 c24 24 48 44 54 44 6 0 22 8 35 18 32 24 53 22 57 -6 3
-18 8 -22 25 -16 12 3 19 3 15 -1 -9 -10 21 -34 43 -35 9 0 28 -10 43 -21 20
-16 30 -19 39 -10 17 17 32 13 35 -9 1 -11 3 -29 4 -40 2 -13 10 -20 24 -20
26 0 80 -43 89 -69 3 -11 17 -22 31 -25 17 -5 24 -12 20 -21 -3 -8 -2 -15 3
-15 12 0 21 39 10 46 -5 3 -9 12 -9 20 0 19 -39 53 -62 54 -13 0 -16 10 -15
49 1 27 4 47 6 45 2 -2 10 4 17 14 12 14 15 15 23 3 8 -12 12 -12 25 -2 19 16
72 6 86 -17 8 -15 9 -15 10 2 0 18 1 18 20 1 12 -11 20 -13 20 -6 0 7 5 9 10
6 6 -4 8 -11 5 -16 -8 -12 11 -12 35 1 14 8 19 5 23 -11 3 -13 10 -18 17 -14
14 8 -26 55 -46 55 -7 0 -22 9 -33 21 -10 11 -27 19 -38 17 -10 -3 -29 1 -43
8 -14 7 -48 15 -75 18 -57 8 -122 24 -147 37 -10 5 -27 9 -37 9 -11 0 -23 5
-26 10 -4 6 -11 8 -16 4 -13 -8 -79 15 -79 28 0 15 31 37 53 38 33 0 17 16
-18 17 -19 1 -35 -2 -35 -5 0 -4 -26 -8 -57 -8 -172 -3 -273 -10 -273 -18 0
-5 -27 -5 -61 -2 -52 6 -63 5 -75 -11 -11 -14 -13 -15 -14 -3 0 11 -12 15 -43
17 -41 1 -42 1 -21 -16 19 -15 20 -19 8 -36 -18 -25 -37 -7 -37 35 0 21 -4 27
-11 20 -5 -5 -18 -10 -27 -10 -9 0 -22 -7 -29 -15 -7 -8 -26 -15 -42 -15 -17
0 -27 -4 -23 -10 3 -6 15 -10 25 -10 10 0 21 -4 24 -8 2 -4 -7 -7 -22 -6 -41
2 -42 3 -43 22 -1 16 -2 16 -6 0 -5 -22 -23 -24 -23 -3 0 8 -4 15 -10 15 -5 0
-10 -7 -10 -15 0 -33 -19 -12 -36 40 -15 49 -19 55 -38 49 -12 -4 -26 -11 -33
-16 -8 -6 -17 2 -29 27 -9 20 -23 39 -31 42 -23 9 -14 27 24 52 30 19 40 21
55 12 13 -8 24 -8 37 -2 10 6 21 8 24 4 4 -3 19 -1 34 5 15 5 37 13 48 17 16
5 17 8 5 15 -8 5 -11 12 -7 16 3 4 14 1 23 -7 13 -11 18 -11 21 -1 3 6 13 12
22 12 10 0 26 9 36 20 21 24 18 24 -26 6 -19 -7 -66 -13 -106 -12 -39 0 -69
-2 -67 -5 2 -3 -19 -5 -46 -4 -39 1 -55 8 -76 28 -15 15 -24 33 -21 41 12 30
-13 83 -53 115 -22 17 -40 40 -40 51 0 22 -17 35 -23 18 -3 -10 -7 -10 -20 1
-10 7 -17 10 -17 5 0 -5 -4 -3 -9 5 -6 9 -14 10 -27 3 -11 -5 -28 -6 -39 -1
-13 5 -15 8 -5 9 12 0 11 3 -2 11 -10 5 -18 14 -18 18 0 5 8 8 18 7 13 -1 16
5 14 28 -2 16 -11 41 -20 55 -15 23 -15 24 -1 14 19 -15 30 -7 22 14 -5 12 0
14 25 8 27 -5 32 -4 33 12 0 15 2 14 9 -4 5 -13 14 -23 19 -23 15 0 24 41 12
53 -6 6 -11 23 -11 38 0 30 -31 48 -53 31 -22 -17 -57 -21 -57 -6 0 8 -7 14
-16 14 -11 0 -14 5 -10 16 3 9 6 20 6 25 0 5 8 8 18 7 9 -1 33 0 52 2 l35 2
-30 7 -30 7 38 13 c30 10 38 17 34 32 -7 25 8 24 36 -2 l22 -20 3 21 c2 12 9
20 15 17 7 -3 12 6 13 22 0 14 4 43 8 64 6 26 5 37 -4 37 -7 0 -9 -8 -5 -20 3
-11 2 -20 -4 -20 -5 0 -12 -8 -15 -17 -3 -13 -4 -12 -3 3 1 11 -4 28 -11 37
-11 13 -10 16 7 22 25 8 27 24 4 40 -10 7 -17 27 -17 48 -1 30 -4 36 -18 31
-10 -3 -18 0 -18 6 0 7 -8 9 -22 5 -17 -6 -20 -4 -15 9 5 11 1 16 -13 16 -11
0 -20 -7 -20 -15 0 -20 -12 -19 -49 2 -24 14 -34 16 -48 7 -14 -10 -27 -7 -63
11 -25 13 -53 26 -63 29 -11 3 -21 15 -24 26 -3 11 -10 20 -15 20 -6 0 -8 7
-4 15 3 8 0 15 -7 15 -8 0 -6 4 3 10 10 6 11 10 3 10 -7 0 -13 5 -13 11 0 14
-36 46 -60 54 -12 4 -16 13 -13 33 4 22 2 24 -7 12 -9 -12 -11 -10 -7 12 3 19
0 28 -9 28 -8 0 -14 -5 -14 -12 0 -6 -3 -9 -6 -6 -3 4 -1 15 5 26 7 14 7 27
-2 46 -14 30 -31 35 -22 6 5 -16 2 -20 -15 -20 -12 0 -18 4 -15 10 12 20 -17
40 -56 40 -38 0 -52 13 -26 23 9 4 9 8 -2 15 -12 9 -12 13 1 26 19 19 13 57
-8 49 -8 -3 -14 0 -14 6 0 6 7 11 15 11 8 0 15 9 15 20 0 10 8 24 18 29 14 9
15 12 2 20 -8 5 -19 7 -25 4 -5 -4 -2 3 8 14 12 14 15 23 8 28 -15 9 -14 62 2
68 7 3 5 6 -5 6 -24 1 -23 31 1 31 10 0 21 8 24 19 3 14 0 17 -14 14 -11 -3
-19 -1 -19 5 0 6 8 13 18 15 13 4 11 5 -5 6 -13 0 -23 -3 -23 -9 0 -5 -5 -10
-11 -10 -16 0 0 63 18 74 12 6 13 10 3 16 -10 6 -9 27 8 101 24 111 39 210 47
297 5 67 27 126 24 67 -3 -66 0 -75 24 -75 43 1 73 40 43 57 -7 4 -18 18 -25
31 -6 12 -18 22 -26 22 -22 0 -18 17 5 23 11 3 20 12 20 20 0 20 -31 31 -43
15 -5 -8 -6 -2 -2 17 4 17 9 50 11 75 3 25 9 77 14 115 5 39 12 111 15 160 3
50 10 140 15 200 5 61 12 139 15 175 11 161 25 363 30 455 16 281 36 579 44
658 1 4 6 7 12 7 7 0 9 -11 6 -30 -4 -16 -2 -32 3 -35 5 -3 7 -12 3 -20 -3 -9
2 -26 11 -40 9 -13 16 -32 16 -40 0 -21 27 -48 40 -40 5 3 10 1 10 -4 0 -6 8
-11 18 -11 13 0 14 -2 3 -9 -9 -6 -10 -11 -2 -15 16 -10 14 -26 -4 -26 -8 0
-15 -5 -15 -11 0 -6 8 -8 20 -4 28 9 69 -22 87 -66 14 -36 49 -69 74 -69 18 0
59 -49 59 -71 0 -22 65 -84 89 -84 9 0 15 -6 13 -14 -3 -15 16 -41 30 -41 5 0
13 10 18 23 7 17 9 18 9 5 1 -10 3 -18 5 -18 2 0 13 -3 23 -7 16 -6 17 -5 3
11 -8 11 -13 34 -11 58 1 23 -2 44 -7 47 -6 4 -13 31 -16 61 -3 30 -3 47 0 38
10 -32 24 -19 24 21 0 22 5 41 11 43 7 2 0 23 -16 53 -16 31 -25 61 -22 78 2
15 0 27 -5 27 -4 0 -8 17 -8 38 0 24 -7 48 -20 62 -16 19 -18 32 -13 81 5 52
4 59 -12 59 -12 0 -16 6 -12 20 3 11 1 20 -3 20 -5 0 -12 15 -15 33 -4 18 -20
48 -36 65 -20 21 -25 32 -16 32 27 0 28 30 2 40 -31 12 -40 32 -26 58 9 16 7
21 -9 25 -12 3 -20 14 -20 25 0 12 -4 24 -10 27 -5 3 -10 16 -10 28 0 12 -9
37 -20 55 -11 18 -20 40 -20 49 0 9 -7 25 -16 34 -9 10 -18 30 -20 45 -1 15
-7 31 -13 37 -6 6 -11 31 -11 55 0 26 -6 49 -14 56 -8 6 -17 28 -20 48 -5 30
-3 37 11 41 14 4 14 5 -4 6 -15 1 -23 9 -28 30 -3 15 -5 32 -3 37 3 11 -21 56
-34 65 -13 8 -20 59 -8 59 5 0 10 7 10 15 0 8 -6 14 -12 12 -9 -1 -15 17 -19
53 l-6 55 -1 -49 c-4 -97 -14 -35 -18 101 -5 213 -2 765 5 866 2 32 25 12 24
-21 -1 -18 -2 -33 -3 -34 -10 -13 -4 -85 7 -97 10 -10 13 -25 9 -50 -5 -30 -4
-33 5 -17 10 16 14 36 18 89 1 4 8 7 16 7 18 0 20 16 4 26 -6 3 -15 1 -19 -6
-5 -9 -9 -9 -14 -1 -4 6 -2 11 3 11 6 0 11 5 11 11 0 5 -4 7 -10 4 -5 -3 -10
1 -10 9 0 9 5 16 11 16 5 0 8 4 5 8 -2 4 -1 14 4 22 7 11 11 11 24 1 9 -8 16
-10 16 -5 0 5 -14 18 -30 29 -17 11 -28 25 -26 32 3 6 0 14 -7 17 -9 5 -9 7 1
12 19 9 14 24 -8 24 -11 0 -20 -5 -20 -12 0 -28 -18 10 -23 49 -3 30 -1 46 9
54 12 10 12 14 2 20 -16 10 -30 218 -16 236 5 7 5 13 0 17 -18 11 -39 786 -22
786 4 0 11 -8 13 -17 3 -11 5 -7 6 10 0 16 -3 26 -8 23 -5 -4 -7 3 -4 14 3 11
0 20 -6 20 -6 0 -11 16 -10 38 l1 37 12 -28 c14 -33 28 -25 19 11 -4 16 -2 23
4 19 14 -9 23 39 10 52 -8 8 -7 11 2 11 7 0 11 6 8 15 -4 8 -1 17 4 21 7 4 8
38 4 99 -6 76 -4 97 9 117 11 17 13 33 8 54 -4 16 -7 72 -7 124 0 53 -4 99
-10 103 -7 6 -6 10 3 14 14 6 16 33 2 33 -6 0 -10 29 -10 68 0 38 -3 72 -7 76
-9 8 -9 13 -11 79 -2 36 -6 47 -18 47 -13 0 -14 3 -5 14 8 10 9 16 1 21 -5 3
-10 25 -10 47 0 27 -6 46 -17 55 -12 10 -14 16 -6 19 8 4 9 13 1 35 -6 17 -8
33 -4 36 7 7 -13 33 -25 33 -5 0 -10 -10 -10 -22 -1 -13 -5 4 -9 37 -11 83
-12 303 -2 309 5 3 6 -8 4 -25 -2 -16 1 -35 7 -43 6 -7 9 -21 5 -30 -5 -12 -2
-15 10 -10 9 3 16 1 16 -5 0 -6 -4 -11 -10 -11 -13 0 -13 -27 0 -35 6 -3 14 4
19 17 l10 23 0 -22 c1 -13 6 -23 12 -23 7 0 9 12 5 35 -5 24 -3 35 5 35 6 0 9
-6 6 -14 -3 -8 6 -24 20 -37 l26 -24 -6 23 c-3 15 -1 22 9 22 8 0 14 -4 14
-10 0 -5 5 -10 11 -10 6 0 9 9 6 20 -6 24 6 25 39 3 19 -12 30 -14 43 -6 17
11 81 -12 81 -30 0 -5 11 -2 25 7 13 9 41 18 61 21 21 2 42 9 48 15 14 14 26
12 26 -5 0 -11 11 -15 40 -15 40 0 40 0 40 39 0 22 5 43 10 46 18 11 10 44
-15 61 -14 9 -25 23 -25 30 0 8 -4 14 -10 14 -5 0 -10 7 -10 15 0 21 -17 19
-24 -2 -3 -10 -3 2 -1 27 4 29 2 40 -4 31 -7 -11 -10 -9 -16 8 -3 11 -13 21
-21 21 -19 0 -70 50 -78 77 -4 12 -16 25 -27 28 -11 4 -19 15 -19 28 0 20 -1
20 -13 3 -13 -17 -14 -17 -30 8 -21 31 -22 46 -2 46 8 0 15 8 15 18 0 11 9 27
19 36 11 10 25 31 31 47 10 24 15 27 27 18 11 -10 15 -8 19 9 4 13 11 19 21
15 8 -3 12 -12 9 -19 -8 -22 15 -16 35 8 19 21 19 21 37 1 11 -13 42 -23 92
-32 41 -7 86 -14 100 -17 14 -3 32 -6 40 -7 8 -2 32 -11 54 -20 21 -9 50 -17
65 -17 14 -1 44 -7 66 -15 22 -8 51 -15 63 -15 13 0 47 -7 76 -15 29 -9 61
-15 72 -13 26 2 84 -13 84 -22 0 -4 26 -10 58 -14 31 -3 83 -10 114 -15 42 -7
74 -5 115 5 32 7 71 13 86 14 23 0 107 38 126 56 3 2 -4 11 -15 20 -10 8 -13
12 -6 9 7 -4 1 11 -15 33 -30 43 -47 52 -103 52 -37 0 -212 50 -270 78 -19 9
-39 16 -45 17 -5 0 -13 3 -16 8 -3 4 -29 13 -57 19 -49 12 -52 14 -52 44 0 26
3 31 19 27 11 -3 21 2 24 11 4 9 13 16 22 16 19 0 55 30 55 47 0 6 -9 15 -20
18 -11 4 -20 15 -20 26 0 11 -7 22 -15 25 -8 4 -15 12 -15 19 0 7 7 15 15 19
8 3 15 0 15 -7 0 -8 4 -6 10 3 14 22 12 33 -5 26 -9 -3 -18 1 -21 9 -4 8 -13
15 -21 15 -10 0 -13 -6 -9 -16 4 -12 0 -15 -17 -12 -12 2 -21 9 -19 17 1 7 -2
19 -9 27 -14 17 12 47 35 38 22 -9 20 1 -8 30 -13 15 -33 26 -45 26 -31 0 -26
20 7 21 71 3 93 -6 130 -55 19 -25 30 -50 26 -59 -3 -8 -1 -18 5 -22 7 -4 2
-19 -14 -43 -32 -48 -32 -56 8 -75 30 -15 32 -15 38 1 5 13 8 10 14 -13 12
-47 45 -77 45 -41 0 8 7 22 16 30 14 15 14 17 0 32 -17 17 -22 49 -6 39 18
-11 11 14 -10 35 -17 17 -18 20 -3 28 20 11 9 32 -17 32 -11 0 -24 9 -30 19
-14 26 -13 61 2 61 13 0 2 14 -13 16 -5 1 -13 2 -19 3 -5 0 -10 12 -10 26 0
18 -4 23 -16 18 -14 -5 -14 -3 -2 16 12 20 11 24 -10 41 -12 10 -30 41 -39 69
-9 30 -38 78 -70 116 -58 71 -64 111 -6 48 80 -88 303 -456 303 -501 0 -7 9
-30 19 -51 19 -36 23 -38 81 -44 87 -10 204 -51 280 -101 85 -55 103 -66 173
-105 69 -38 63 -41 149 73 33 45 82 99 108 122 64 54 98 95 149 179 87 141
239 325 268 325 7 0 13 5 13 10 0 6 7 10 15 10 8 0 15 -4 15 -9 0 -14 98 -61
127 -61 38 0 145 126 203 240 13 25 41 72 64 105 23 33 52 82 66 108 14 26 28
47 32 47 4 0 15 -17 23 -37z m6762 -65 c15 -7 30 -15 33 -18 3 -3 19 -10 35
-15 17 -6 34 -20 40 -33 5 -12 15 -22 20 -22 10 0 41 -67 37 -81 -1 -4 3 -21
8 -39 6 -22 5 -50 -4 -88 -7 -32 -19 -85 -25 -118 -6 -34 -18 -75 -27 -92 -8
-17 -20 -59 -26 -94 -13 -76 -44 -145 -98 -216 -22 -29 -40 -57 -40 -62 0 -6
-5 -10 -11 -10 -6 0 -25 -11 -42 -24 -58 -44 -116 -57 -258 -57 -145 0 -152
-4 -130 -65 20 -55 39 -193 27 -197 -8 -3 -86 69 -86 79 0 2 -10 14 -23 28
-13 14 -60 76 -106 138 -45 62 -101 137 -124 165 -24 29 -49 70 -56 90 -20 55
-47 90 -76 97 -14 4 -25 10 -25 15 0 5 -21 31 -46 58 -78 80 -84 92 -84 144 0
27 4 49 9 49 5 0 13 9 16 20 3 11 11 20 17 20 6 0 32 18 58 40 26 22 51 40 55
40 14 0 85 55 85 66 0 7 8 15 18 18 9 4 40 20 67 36 92 53 216 112 263 125 65
17 460 20 499 3z m-9789 -766 c6 -9 12 -22 12 -30 0 -22 -73 -109 -129 -153
l-51 -41 -9 25 c-5 14 -6 40 -1 61 4 19 6 61 4 92 -2 30 -2 60 1 65 10 15 158
-1 173 -19z m9774 -796 c15 -8 40 -17 56 -21 16 -3 40 -18 53 -33 37 -41 89
-110 89 -118 0 -9 30 -33 58 -44 30 -13 28 -30 -4 -30 -17 0 -28 6 -31 20 -4
14 -14 20 -34 20 -35 0 -86 28 -152 83 -85 72 -117 105 -117 121 0 20 45 21
82 2z m2448 -1735 c0 -6 17 -19 38 -31 34 -19 38 -25 40 -67 1 -25 7 -52 14
-60 8 -10 12 -52 13 -116 l0 -102 -99 -98 c-110 -110 -150 -132 -208 -114 -37
12 -48 30 -83 137 -10 30 -21 57 -24 60 -4 3 -12 28 -19 55 -9 40 -9 58 1 90
18 55 65 145 77 145 6 0 10 7 10 15 0 8 6 15 14 15 8 0 17 9 21 19 12 37 64
61 138 61 37 0 67 -4 67 -9z m-18020 -2966 c8 -26 9 -39 1 -49 -8 -9 -7 -18 4
-32 8 -10 15 -28 15 -39 0 -12 17 -72 38 -135 31 -93 42 -146 56 -280 17 -160
49 -355 81 -492 8 -38 22 -98 30 -135 9 -38 20 -160 25 -273 6 -113 15 -221
20 -241 12 -42 -3 -172 -19 -177 -6 -2 -20 -20 -32 -41 -20 -35 -95 -91 -123
-91 -12 0 -38 -46 -38 -67 0 -19 -19 -41 -40 -46 -54 -13 -100 -35 -114 -56
-9 -12 -23 -21 -32 -20 -10 1 -23 1 -29 0 -18 -2 -63 -76 -63 -105 0 -14 -7
-26 -17 -30 -26 -8 -110 -59 -135 -80 -11 -10 -35 -23 -52 -29 -17 -5 -34 -14
-37 -19 -8 -12 -71 12 -92 36 -10 12 -26 33 -35 49 -9 15 -20 27 -24 27 -4 0
-8 8 -8 18 0 18 -50 52 -77 52 -15 0 -73 29 -83 41 -3 4 -21 10 -40 14 -19 4
-53 17 -75 28 -27 14 -65 21 -119 24 -44 2 -82 7 -85 11 -5 7 -120 40 -161 46
-18 2 -73 28 -80 37 -3 3 -26 14 -51 23 -25 10 -57 28 -72 41 -17 17 -27 21
-30 12 -3 -7 -6 -6 -6 4 -1 9 -20 45 -43 80 -27 40 -38 64 -30 67 14 4 16 79
2 84 -13 4 -15 308 -2 317 5 3 17 38 27 76 23 98 46 166 67 197 10 14 18 31
18 37 0 6 4 11 8 11 4 0 15 12 24 28 33 56 119 132 148 132 5 0 24 6 42 14 18
8 53 21 78 30 25 9 63 32 83 51 20 19 41 35 46 35 5 0 11 8 15 18 3 9 22 39
41 67 l36 49 -2 143 -3 142 27 25 c47 44 237 130 397 181 47 15 105 36 130 47
25 11 54 23 65 28 95 38 153 66 225 109 36 22 70 39 77 40 6 1 17 -15 23 -34z
m5374 -3442 l-29 -26 27 6 c33 9 49 -14 41 -57 -4 -20 -1 -33 9 -40 9 -6 14
-23 13 -36 -1 -14 -3 -31 -4 -37 0 -7 -9 -13 -20 -13 -10 0 -24 -6 -30 -14
-10 -12 -8 -13 10 -9 16 4 20 2 17 -8 -3 -9 -16 -13 -34 -11 -34 4 -43 10 -27
20 8 5 8 12 -3 26 -11 16 -16 17 -29 6 -12 -10 -15 -10 -15 4 0 9 9 21 20 28
11 7 20 18 20 25 0 17 -27 17 -33 1 -3 -7 -6 -3 -6 10 -1 13 3 31 9 41 7 14 5
23 -10 36 -33 29 -17 72 15 45 12 -10 15 -9 15 4 0 12 5 16 19 11 10 -3 24 1
31 10 7 9 15 13 18 10 3 -2 -8 -17 -24 -32z m-76 -278 c23 -12 40 -24 36 -27
-3 -3 3 -5 13 -4 13 1 17 -5 15 -23 -1 -17 2 -22 13 -17 9 3 15 0 15 -9 0 -8
-7 -15 -15 -15 -8 0 -15 -7 -15 -15 0 -8 -4 -15 -10 -15 -5 0 -10 -9 -10 -20
0 -14 7 -20 21 -20 19 0 20 -4 15 -42 -3 -24 -2 -34 1 -24 3 11 12 26 20 34
13 13 16 13 24 1 12 -19 11 -39 -1 -39 -5 0 -10 -7 -10 -15 0 -8 -4 -15 -8
-15 -5 0 -13 -10 -19 -22 -6 -15 -12 -18 -17 -10 -4 7 -2 12 3 12 15 0 14 17
-1 23 -19 7 -21 -58 -4 -72 11 -10 16 -8 24 5 6 10 12 13 16 6 3 -6 2 -13 -4
-17 -5 -3 -10 -22 -10 -40 0 -33 -1 -34 -26 -25 -31 12 -34 12 -34 1 0 -5 12
-11 28 -13 21 -2 28 -9 30 -30 3 -21 -1 -28 -15 -28 -17 -1 -17 -1 0 -14 10
-8 15 -20 11 -30 -8 -21 13 -46 33 -39 11 4 14 2 9 -5 -7 -12 19 -72 38 -84 8
-6 6 -11 -4 -19 -11 -8 -6 -9 23 -4 35 6 37 5 37 -21 0 -15 -8 -33 -17 -40
-17 -13 -17 -13 0 -14 9 0 17 -4 17 -10 0 -16 42 -60 57 -60 8 0 12 -3 10 -7
-7 -12 11 -53 22 -53 5 0 11 6 14 13 2 6 3 5 2 -3 0 -8 12 -27 27 -43 15 -15
28 -32 28 -37 0 -6 7 -10 15 -10 8 0 15 -9 15 -20 0 -11 4 -20 10 -20 17 0 61
-44 56 -56 -2 -6 6 -17 20 -24 13 -8 24 -22 24 -32 0 -10 8 -26 18 -35 10 -10
46 -44 81 -77 60 -56 73 -78 34 -58 -51 27 -133 62 -144 62 -35 0 -293 86
-354 118 -67 35 -132 94 -147 133 -4 11 -11 19 -16 19 -4 0 -16 20 -26 44 -10
25 -25 47 -32 50 -8 3 -14 20 -14 39 0 18 -5 38 -12 45 -7 7 -8 12 -2 12 14 0
11 49 -5 78 -7 13 -11 40 -10 60 2 21 -1 43 -5 50 -4 7 -5 25 -1 41 3 15 1 40
-5 55 -7 20 -7 32 0 41 8 9 7 14 -2 18 -10 4 -11 7 0 18 15 16 17 83 1 74 -6
-4 -8 -13 -6 -19 3 -7 1 -19 -4 -27 -16 -23 -3 99 21 191 5 19 12 48 15 63 3
15 10 25 16 22 7 -5 6 -11 -1 -20 -8 -9 -8 -15 0 -20 5 -3 10 1 10 9 0 9 5 16
10 16 6 0 10 9 10 20 0 11 -7 20 -15 20 -9 0 -15 9 -15 25 0 14 5 25 11 25 8
0 8 4 0 13 -8 10 -7 22 2 46 l12 33 5 -28 c4 -20 16 -33 48 -49z m3420 -1504
c32 3 36 -1 16 -17 -18 -15 -17 -15 18 -10 34 4 39 2 44 -20 7 -26 -5 -87 -13
-66 -3 6 -9 9 -15 6 -6 -4 -24 -7 -40 -6 -28 1 -29 0 -12 -13 10 -7 23 -11 27
-8 12 8 57 -18 57 -32 0 -8 -10 -10 -25 -7 -15 2 -25 0 -25 -7 0 -6 3 -10 8
-10 36 6 40 -1 47 -88 10 -130 13 -241 6 -250 -13 -17 -50 -32 -56 -23 -3 6
-1 10 4 10 14 0 14 37 1 45 -12 8 -13 25 -1 25 5 0 11 -9 14 -20 3 -11 10 -20
15 -20 14 0 3 36 -14 51 -8 6 -14 18 -14 25 0 8 -3 13 -7 12 -10 -3 -63 43
-63 54 0 4 12 8 26 8 22 0 24 3 19 23 -5 17 -4 19 4 7 9 -13 11 -13 11 3 0 20
16 23 23 5 3 -8 6 -6 6 5 1 9 -3 17 -9 17 -5 0 -10 8 -10 18 -1 15 -2 15 -17
-3 -14 -18 -15 -18 -9 -2 6 17 2 18 -44 12 l-50 -7 -1 39 c0 21 -2 49 -3 63
-2 13 3 31 11 38 18 18 17 32 -3 32 -9 0 -12 -5 -8 -12 4 -7 -1 -6 -10 3 -16
15 -38 113 -28 123 2 3 14 0 25 -6 17 -9 23 -8 31 5 7 12 15 13 28 6 11 -6 26
-9 36 -8z m-253 -50 c-16 -14 -105 -33 -175 -37 -36 -2 -130 -10 -210 -17 -80
-8 -156 -11 -170 -7 l-25 7 28 7 c26 6 214 27 417 46 116 10 145 11 135 1z
m-637 -111 c3 -34 2 -35 -35 -36 -40 -1 -224 -20 -280 -29 -29 -5 -33 -3 -39
20 -9 37 7 48 78 52 35 3 104 10 153 18 118 17 119 17 123 -25z"/>
<path d="M3520 16230 c0 -5 -7 -10 -15 -10 -9 0 -24 -13 -33 -30 -9 -16 -20
-30 -24 -30 -5 0 -8 -6 -8 -12 -1 -21 -88 -80 -138 -94 -87 -23 -197 -55 -227
-66 -16 -5 -48 -14 -70 -19 -52 -13 -72 -29 -76 -60 -8 -58 74 -109 175 -109
33 0 91 -14 166 -39 193 -66 231 -78 335 -110 55 -17 126 -35 157 -41 32 -6
64 -17 70 -23 19 -18 72 -33 176 -53 88 -17 94 -19 125 -58 18 -23 40 -53 50
-68 12 -19 28 -29 54 -33 21 -3 78 -12 126 -20 74 -13 97 -14 142 -3 30 7 55
16 55 20 0 5 8 8 18 8 24 1 52 24 52 44 0 9 -3 16 -8 16 -11 0 -36 61 -39 95
-6 71 -8 81 -19 92 -7 8 -15 8 -21 2 -6 -6 -15 -4 -24 7 -11 14 -13 53 -11
190 4 218 -10 254 -97 252 -25 -1 -39 -10 -64 -41 -42 -54 -108 -117 -121
-117 -6 0 -25 -14 -43 -30 -18 -17 -36 -30 -42 -30 -5 0 -11 -3 -13 -8 -5 -11
-131 -42 -171 -42 -41 0 -97 18 -97 32 0 14 -42 47 -61 48 -23 0 -64 -46 -47
-53 9 -4 8 -6 -3 -6 -9 -1 -35 13 -57 29 -38 28 -42 34 -42 75 0 25 6 50 14
57 12 11 6 17 -37 38 l-52 25 -3 70 c-3 96 -9 115 -32 115 -11 0 -20 -4 -20
-10z"/>
</g>
</svg>
